<mxfile host="app.diagrams.net" agent="Mozilla/5.0 (Windows NT 10.0; Win64; x64) AppleWebKit/537.36 (KHTML, like Gecko) Chrome/136.0.0.0 Safari/537.36" version="27.0.9">
  <diagram name="Page-1" id="842PKtt0k6vasjKNzPcE">
    <mxGraphModel dx="872" dy="1573" grid="1" gridSize="10" guides="1" tooltips="1" connect="1" arrows="1" fold="1" page="1" pageScale="1" pageWidth="850" pageHeight="1100" math="0" shadow="0">
      <root>
        <mxCell id="0" />
        <mxCell id="1" parent="0" />
        <mxCell id="z8C4L0hSUjsECpHvJzu9-29" value="" style="rounded=0;whiteSpace=wrap;html=1;" parent="1" vertex="1">
          <mxGeometry x="300" y="-130" width="630" height="1271" as="geometry" />
        </mxCell>
        <mxCell id="z8C4L0hSUjsECpHvJzu9-20" style="rounded=0;orthogonalLoop=1;jettySize=auto;html=1;exitX=0.5;exitY=0.5;exitDx=0;exitDy=0;exitPerimeter=0;entryX=0;entryY=0.5;entryDx=0;entryDy=0;" parent="1" source="z8C4L0hSUjsECpHvJzu9-1" target="z8C4L0hSUjsECpHvJzu9-7" edge="1">
          <mxGeometry relative="1" as="geometry" />
        </mxCell>
        <mxCell id="Deg4uTe3ZJ_qIng3cPrO-2" style="rounded=0;orthogonalLoop=1;jettySize=auto;html=1;exitX=0.5;exitY=0.5;exitDx=0;exitDy=0;exitPerimeter=0;entryX=0;entryY=0.5;entryDx=0;entryDy=0;" edge="1" parent="1" source="z8C4L0hSUjsECpHvJzu9-1" target="z8C4L0hSUjsECpHvJzu9-22">
          <mxGeometry relative="1" as="geometry" />
        </mxCell>
        <mxCell id="z8C4L0hSUjsECpHvJzu9-1" value="user" style="shape=umlActor;verticalLabelPosition=bottom;verticalAlign=top;html=1;outlineConnect=0;" parent="1" vertex="1">
          <mxGeometry x="210" y="240" width="30" height="60" as="geometry" />
        </mxCell>
        <mxCell id="Deg4uTe3ZJ_qIng3cPrO-17" style="rounded=0;orthogonalLoop=1;jettySize=auto;html=1;exitX=1;exitY=0.5;exitDx=0;exitDy=0;entryX=0;entryY=0.5;entryDx=0;entryDy=0;dashed=1;" edge="1" parent="1" source="z8C4L0hSUjsECpHvJzu9-4" target="z8C4L0hSUjsECpHvJzu9-6">
          <mxGeometry relative="1" as="geometry" />
        </mxCell>
        <mxCell id="Deg4uTe3ZJ_qIng3cPrO-19" value="Extend" style="edgeLabel;html=1;align=center;verticalAlign=middle;resizable=0;points=[];" vertex="1" connectable="0" parent="Deg4uTe3ZJ_qIng3cPrO-17">
          <mxGeometry x="0.2" relative="1" as="geometry">
            <mxPoint as="offset" />
          </mxGeometry>
        </mxCell>
        <mxCell id="Deg4uTe3ZJ_qIng3cPrO-18" style="rounded=0;orthogonalLoop=1;jettySize=auto;html=1;exitX=1;exitY=0.5;exitDx=0;exitDy=0;dashed=1;" edge="1" parent="1" source="z8C4L0hSUjsECpHvJzu9-4" target="z8C4L0hSUjsECpHvJzu9-8">
          <mxGeometry relative="1" as="geometry" />
        </mxCell>
        <mxCell id="Deg4uTe3ZJ_qIng3cPrO-20" value="Extend" style="edgeLabel;html=1;align=center;verticalAlign=middle;resizable=0;points=[];" vertex="1" connectable="0" parent="Deg4uTe3ZJ_qIng3cPrO-18">
          <mxGeometry x="-0.0487" y="3" relative="1" as="geometry">
            <mxPoint as="offset" />
          </mxGeometry>
        </mxCell>
        <mxCell id="Deg4uTe3ZJ_qIng3cPrO-28" style="edgeStyle=orthogonalEdgeStyle;rounded=0;orthogonalLoop=1;jettySize=auto;html=1;exitX=1;exitY=0.5;exitDx=0;exitDy=0;dashed=1;" edge="1" parent="1" source="z8C4L0hSUjsECpHvJzu9-4" target="z8C4L0hSUjsECpHvJzu9-26">
          <mxGeometry relative="1" as="geometry" />
        </mxCell>
        <mxCell id="z8C4L0hSUjsECpHvJzu9-4" value="Melihat Lokasi Troli" style="ellipse;whiteSpace=wrap;html=1;" parent="1" vertex="1">
          <mxGeometry x="470" y="70" width="120" height="80" as="geometry" />
        </mxCell>
        <mxCell id="z8C4L0hSUjsECpHvJzu9-5" value="Website Management Troli Berbasis RFID" style="text;html=1;align=center;verticalAlign=middle;whiteSpace=wrap;rounded=0;fontStyle=1" parent="1" vertex="1">
          <mxGeometry x="290" y="-120" width="200" height="40" as="geometry" />
        </mxCell>
        <mxCell id="z8C4L0hSUjsECpHvJzu9-6" value="Melihat Detail Troli" style="ellipse;whiteSpace=wrap;html=1;" parent="1" vertex="1">
          <mxGeometry x="710" y="-30" width="120" height="80" as="geometry" />
        </mxCell>
        <mxCell id="Deg4uTe3ZJ_qIng3cPrO-30" style="edgeStyle=orthogonalEdgeStyle;rounded=0;orthogonalLoop=1;jettySize=auto;html=1;exitX=1;exitY=0.5;exitDx=0;exitDy=0;dashed=1;" edge="1" parent="1" source="z8C4L0hSUjsECpHvJzu9-7" target="z8C4L0hSUjsECpHvJzu9-26">
          <mxGeometry relative="1" as="geometry" />
        </mxCell>
        <mxCell id="z8C4L0hSUjsECpHvJzu9-7" value="Melihat Troli via tabel" style="ellipse;whiteSpace=wrap;html=1;" parent="1" vertex="1">
          <mxGeometry x="470" y="280" width="120" height="80" as="geometry" />
        </mxCell>
        <mxCell id="z8C4L0hSUjsECpHvJzu9-8" value="Melihat troli dengan fiter" style="ellipse;whiteSpace=wrap;html=1;" parent="1" vertex="1">
          <mxGeometry x="710" y="70" width="120" height="80" as="geometry" />
        </mxCell>
        <mxCell id="z8C4L0hSUjsECpHvJzu9-14" style="rounded=0;orthogonalLoop=1;jettySize=auto;html=1;exitX=0.5;exitY=0.5;exitDx=0;exitDy=0;exitPerimeter=0;entryX=0.067;entryY=0.338;entryDx=0;entryDy=0;entryPerimeter=0;" parent="1" source="z8C4L0hSUjsECpHvJzu9-1" target="z8C4L0hSUjsECpHvJzu9-4" edge="1">
          <mxGeometry relative="1" as="geometry">
            <Array as="points" />
          </mxGeometry>
        </mxCell>
        <mxCell id="z8C4L0hSUjsECpHvJzu9-62" style="rounded=0;orthogonalLoop=1;jettySize=auto;html=1;exitX=0.5;exitY=0.5;exitDx=0;exitDy=0;exitPerimeter=0;" parent="1" source="z8C4L0hSUjsECpHvJzu9-21" target="z8C4L0hSUjsECpHvJzu9-38" edge="1">
          <mxGeometry relative="1" as="geometry" />
        </mxCell>
        <mxCell id="Deg4uTe3ZJ_qIng3cPrO-42" style="rounded=0;orthogonalLoop=1;jettySize=auto;html=1;exitX=0.5;exitY=0.5;exitDx=0;exitDy=0;exitPerimeter=0;entryX=1;entryY=1;entryDx=0;entryDy=0;" edge="1" parent="1" source="z8C4L0hSUjsECpHvJzu9-21" target="z8C4L0hSUjsECpHvJzu9-26">
          <mxGeometry relative="1" as="geometry" />
        </mxCell>
        <mxCell id="z8C4L0hSUjsECpHvJzu9-21" value="Admin" style="shape=umlActor;verticalLabelPosition=bottom;verticalAlign=top;html=1;outlineConnect=0;" parent="1" vertex="1">
          <mxGeometry x="970" y="440" width="30" height="60" as="geometry" />
        </mxCell>
        <mxCell id="Deg4uTe3ZJ_qIng3cPrO-29" style="edgeStyle=orthogonalEdgeStyle;rounded=0;orthogonalLoop=1;jettySize=auto;html=1;exitX=1;exitY=0.5;exitDx=0;exitDy=0;dashed=1;" edge="1" parent="1" source="z8C4L0hSUjsECpHvJzu9-22" target="z8C4L0hSUjsECpHvJzu9-26">
          <mxGeometry relative="1" as="geometry" />
        </mxCell>
        <mxCell id="Deg4uTe3ZJ_qIng3cPrO-32" value="Include" style="edgeLabel;html=1;align=center;verticalAlign=middle;resizable=0;points=[];" vertex="1" connectable="0" parent="Deg4uTe3ZJ_qIng3cPrO-29">
          <mxGeometry x="0.6105" y="1" relative="1" as="geometry">
            <mxPoint as="offset" />
          </mxGeometry>
        </mxCell>
        <mxCell id="z8C4L0hSUjsECpHvJzu9-22" value="Mengubah ruangan" style="ellipse;whiteSpace=wrap;html=1;" parent="1" vertex="1">
          <mxGeometry x="470" y="180" width="120" height="80" as="geometry" />
        </mxCell>
        <mxCell id="z8C4L0hSUjsECpHvJzu9-31" style="rounded=0;orthogonalLoop=1;jettySize=auto;html=1;exitX=0;exitY=1;exitDx=0;exitDy=0;entryX=1;entryY=0;entryDx=0;entryDy=0;dashed=1;" parent="1" source="z8C4L0hSUjsECpHvJzu9-26" target="z8C4L0hSUjsECpHvJzu9-30" edge="1">
          <mxGeometry relative="1" as="geometry" />
        </mxCell>
        <mxCell id="z8C4L0hSUjsECpHvJzu9-32" value="Include" style="edgeLabel;html=1;align=center;verticalAlign=middle;resizable=0;points=[];" parent="z8C4L0hSUjsECpHvJzu9-31" vertex="1" connectable="0">
          <mxGeometry x="0.0382" y="1" relative="1" as="geometry">
            <mxPoint as="offset" />
          </mxGeometry>
        </mxCell>
        <mxCell id="Deg4uTe3ZJ_qIng3cPrO-13" style="rounded=0;orthogonalLoop=1;jettySize=auto;html=1;exitX=0;exitY=1;exitDx=0;exitDy=0;entryX=1;entryY=0;entryDx=0;entryDy=0;dashed=1;" edge="1" parent="1" source="z8C4L0hSUjsECpHvJzu9-26" target="Deg4uTe3ZJ_qIng3cPrO-12">
          <mxGeometry relative="1" as="geometry" />
        </mxCell>
        <mxCell id="Deg4uTe3ZJ_qIng3cPrO-14" value="Extend" style="edgeLabel;html=1;align=center;verticalAlign=middle;resizable=0;points=[];" vertex="1" connectable="0" parent="Deg4uTe3ZJ_qIng3cPrO-13">
          <mxGeometry x="-0.2415" y="1" relative="1" as="geometry">
            <mxPoint as="offset" />
          </mxGeometry>
        </mxCell>
        <mxCell id="z8C4L0hSUjsECpHvJzu9-26" value="Login" style="ellipse;whiteSpace=wrap;html=1;" parent="1" vertex="1">
          <mxGeometry x="560" y="380" width="120" height="80" as="geometry" />
        </mxCell>
        <mxCell id="z8C4L0hSUjsECpHvJzu9-30" value="Validasi data" style="ellipse;whiteSpace=wrap;html=1;" parent="1" vertex="1">
          <mxGeometry x="390" y="460" width="120" height="80" as="geometry" />
        </mxCell>
        <mxCell id="Deg4uTe3ZJ_qIng3cPrO-35" style="edgeStyle=orthogonalEdgeStyle;rounded=0;orthogonalLoop=1;jettySize=auto;html=1;exitX=0;exitY=0.5;exitDx=0;exitDy=0;dashed=1;" edge="1" parent="1" source="z8C4L0hSUjsECpHvJzu9-38" target="z8C4L0hSUjsECpHvJzu9-26">
          <mxGeometry relative="1" as="geometry" />
        </mxCell>
        <mxCell id="z8C4L0hSUjsECpHvJzu9-38" value="Administrasi Troli" style="ellipse;whiteSpace=wrap;html=1;" parent="1" vertex="1">
          <mxGeometry x="700" y="700" width="120" height="80" as="geometry" />
        </mxCell>
        <mxCell id="z8C4L0hSUjsECpHvJzu9-58" style="rounded=0;orthogonalLoop=1;jettySize=auto;html=1;exitX=1;exitY=0;exitDx=0;exitDy=0;entryX=0;entryY=1;entryDx=0;entryDy=0;dashed=1;" parent="1" source="z8C4L0hSUjsECpHvJzu9-41" target="z8C4L0hSUjsECpHvJzu9-38" edge="1">
          <mxGeometry relative="1" as="geometry" />
        </mxCell>
        <mxCell id="z8C4L0hSUjsECpHvJzu9-59" value="Include" style="edgeLabel;html=1;align=center;verticalAlign=middle;resizable=0;points=[];" parent="z8C4L0hSUjsECpHvJzu9-58" vertex="1" connectable="0">
          <mxGeometry x="-0.0637" y="2" relative="1" as="geometry">
            <mxPoint as="offset" />
          </mxGeometry>
        </mxCell>
        <mxCell id="z8C4L0hSUjsECpHvJzu9-41" value="CRUD Troli" style="ellipse;whiteSpace=wrap;html=1;" parent="1" vertex="1">
          <mxGeometry x="590" y="800" width="120" height="80" as="geometry" />
        </mxCell>
        <mxCell id="Deg4uTe3ZJ_qIng3cPrO-23" style="rounded=0;orthogonalLoop=1;jettySize=auto;html=1;exitX=0.5;exitY=0;exitDx=0;exitDy=0;entryX=1;entryY=1;entryDx=0;entryDy=0;dashed=1;" edge="1" parent="1" source="z8C4L0hSUjsECpHvJzu9-42" target="z8C4L0hSUjsECpHvJzu9-38">
          <mxGeometry relative="1" as="geometry" />
        </mxCell>
        <mxCell id="Deg4uTe3ZJ_qIng3cPrO-27" value="Include" style="edgeLabel;html=1;align=center;verticalAlign=middle;resizable=0;points=[];" vertex="1" connectable="0" parent="Deg4uTe3ZJ_qIng3cPrO-23">
          <mxGeometry x="0.0274" y="4" relative="1" as="geometry">
            <mxPoint as="offset" />
          </mxGeometry>
        </mxCell>
        <mxCell id="z8C4L0hSUjsECpHvJzu9-42" value="Memberi indikator" style="ellipse;whiteSpace=wrap;html=1;" parent="1" vertex="1">
          <mxGeometry x="780" y="820" width="120" height="80" as="geometry" />
        </mxCell>
        <mxCell id="z8C4L0hSUjsECpHvJzu9-60" style="rounded=0;orthogonalLoop=1;jettySize=auto;html=1;exitX=1;exitY=0;exitDx=0;exitDy=0;entryX=0.5;entryY=1;entryDx=0;entryDy=0;dashed=1;" parent="1" source="z8C4L0hSUjsECpHvJzu9-53" target="z8C4L0hSUjsECpHvJzu9-42" edge="1">
          <mxGeometry relative="1" as="geometry" />
        </mxCell>
        <mxCell id="z8C4L0hSUjsECpHvJzu9-61" value="Extend" style="edgeLabel;html=1;align=center;verticalAlign=middle;resizable=0;points=[];" parent="z8C4L0hSUjsECpHvJzu9-60" vertex="1" connectable="0">
          <mxGeometry x="-0.0088" relative="1" as="geometry">
            <mxPoint as="offset" />
          </mxGeometry>
        </mxCell>
        <mxCell id="z8C4L0hSUjsECpHvJzu9-53" value="Membuat Komentar Indikator" style="ellipse;whiteSpace=wrap;html=1;" parent="1" vertex="1">
          <mxGeometry x="700" y="940" width="120" height="80" as="geometry" />
        </mxCell>
        <mxCell id="Deg4uTe3ZJ_qIng3cPrO-7" style="edgeStyle=orthogonalEdgeStyle;rounded=0;orthogonalLoop=1;jettySize=auto;html=1;exitX=0.5;exitY=1;exitDx=0;exitDy=0;dashed=1;" edge="1" parent="1" source="Deg4uTe3ZJ_qIng3cPrO-5" target="z8C4L0hSUjsECpHvJzu9-4">
          <mxGeometry relative="1" as="geometry" />
        </mxCell>
        <mxCell id="Deg4uTe3ZJ_qIng3cPrO-8" value="Include" style="edgeLabel;html=1;align=center;verticalAlign=middle;resizable=0;points=[];" vertex="1" connectable="0" parent="Deg4uTe3ZJ_qIng3cPrO-7">
          <mxGeometry x="-0.08" y="-2" relative="1" as="geometry">
            <mxPoint as="offset" />
          </mxGeometry>
        </mxCell>
        <mxCell id="Deg4uTe3ZJ_qIng3cPrO-5" value="Sync RFID Location" style="ellipse;whiteSpace=wrap;html=1;" vertex="1" parent="1">
          <mxGeometry x="470" y="-60" width="120" height="80" as="geometry" />
        </mxCell>
        <mxCell id="Deg4uTe3ZJ_qIng3cPrO-11" style="rounded=0;orthogonalLoop=1;jettySize=auto;html=1;exitX=0.5;exitY=0.5;exitDx=0;exitDy=0;exitPerimeter=0;entryX=0.042;entryY=0.588;entryDx=0;entryDy=0;entryPerimeter=0;" edge="1" parent="1" source="z8C4L0hSUjsECpHvJzu9-1" target="z8C4L0hSUjsECpHvJzu9-26">
          <mxGeometry relative="1" as="geometry" />
        </mxCell>
        <mxCell id="Deg4uTe3ZJ_qIng3cPrO-12" value="Logout" style="ellipse;whiteSpace=wrap;html=1;" vertex="1" parent="1">
          <mxGeometry x="390" y="560" width="120" height="80" as="geometry" />
        </mxCell>
        <mxCell id="Deg4uTe3ZJ_qIng3cPrO-34" style="edgeStyle=orthogonalEdgeStyle;rounded=0;orthogonalLoop=1;jettySize=auto;html=1;exitX=0;exitY=0.5;exitDx=0;exitDy=0;dashed=1;" edge="1" parent="1" source="Deg4uTe3ZJ_qIng3cPrO-15" target="z8C4L0hSUjsECpHvJzu9-26">
          <mxGeometry relative="1" as="geometry" />
        </mxCell>
        <mxCell id="Deg4uTe3ZJ_qIng3cPrO-36" value="Include" style="edgeLabel;html=1;align=center;verticalAlign=middle;resizable=0;points=[];" vertex="1" connectable="0" parent="Deg4uTe3ZJ_qIng3cPrO-34">
          <mxGeometry x="0.4875" y="3" relative="1" as="geometry">
            <mxPoint as="offset" />
          </mxGeometry>
        </mxCell>
        <mxCell id="Deg4uTe3ZJ_qIng3cPrO-43" style="rounded=0;orthogonalLoop=1;jettySize=auto;html=1;exitX=0;exitY=1;exitDx=0;exitDy=0;dashed=1;" edge="1" parent="1" source="Deg4uTe3ZJ_qIng3cPrO-15" target="Deg4uTe3ZJ_qIng3cPrO-24">
          <mxGeometry relative="1" as="geometry" />
        </mxCell>
        <mxCell id="Deg4uTe3ZJ_qIng3cPrO-44" value="Extend" style="edgeLabel;html=1;align=center;verticalAlign=middle;resizable=0;points=[];" vertex="1" connectable="0" parent="Deg4uTe3ZJ_qIng3cPrO-43">
          <mxGeometry x="0.0196" y="1" relative="1" as="geometry">
            <mxPoint as="offset" />
          </mxGeometry>
        </mxCell>
        <mxCell id="Deg4uTe3ZJ_qIng3cPrO-15" value="Melihat Laporan Troli" style="ellipse;whiteSpace=wrap;html=1;" vertex="1" parent="1">
          <mxGeometry x="700" y="470" width="120" height="80" as="geometry" />
        </mxCell>
        <mxCell id="Deg4uTe3ZJ_qIng3cPrO-24" value="Mendowload Laporan" style="ellipse;whiteSpace=wrap;html=1;" vertex="1" parent="1">
          <mxGeometry x="630" y="590" width="120" height="80" as="geometry" />
        </mxCell>
        <mxCell id="Deg4uTe3ZJ_qIng3cPrO-41" style="rounded=0;orthogonalLoop=1;jettySize=auto;html=1;exitX=0.5;exitY=0.5;exitDx=0;exitDy=0;exitPerimeter=0;entryX=1.008;entryY=0.6;entryDx=0;entryDy=0;entryPerimeter=0;" edge="1" parent="1" source="z8C4L0hSUjsECpHvJzu9-21" target="Deg4uTe3ZJ_qIng3cPrO-15">
          <mxGeometry relative="1" as="geometry" />
        </mxCell>
      </root>
    </mxGraphModel>
  </diagram>
</mxfile>
